<svg xmlns="http://www.w3.org/2000/svg" width="400" height="400" viewBox="0 0 400 400" fill="none">
  <g opacity="0.8">
    <!-- Digital Circle -->
    <circle cx="200" cy="200" r="150" stroke="#f49523" stroke-width="1" stroke-dasharray="10 5" opacity="0.3" />
    <circle cx="200" cy="200" r="120" stroke="#f49523" stroke-width="1" stroke-dasharray="5 5" opacity="0.5" />
    
    <!-- Headset Base -->
    <path d="M120 200C120 145.6 162.6 100 220 100C277.4 100 320 145.6 320 200" stroke="#f49523" stroke-width="3" stroke-linecap="round" />
    
    <!-- Left Ear Piece -->
    <rect x="100" y="180" width="20" height="60" rx="5" fill="#0d1b38" stroke="#f49523" stroke-width="2" />
    <rect x="90" y="190" width="10" height="40" rx="3" fill="#0d1b38" stroke="#f49523" stroke-width="1" />
    <path d="M120 210C140 210 140 190 120 190" stroke="#f49523" stroke-width="2" />
    <path d="M120 230C140 230 140 210 120 210" stroke="#f49523" stroke-width="2" />
    
    <!-- Right Ear Piece -->
    <rect x="280" y="180" width="20" height="60" rx="5" fill="#0d1b38" stroke="#f49523" stroke-width="2" />
    <rect x="300" y="190" width="10" height="40" rx="3" fill="#0d1b38" stroke="#f49523" stroke-width="1" />
    <path d="M280 210C260 210 260 190 280 190" stroke="#f49523" stroke-width="2" />
    <path d="M280 230C260 230 260 210 280 210" stroke="#f49523" stroke-width="2" />
    
    <!-- Microphone -->
    <path d="M280 210C280 210 290 220 290 240C290 260 280 270 260 270" stroke="#f49523" stroke-width="2" stroke-linecap="round" />
    <circle cx="250" cy="270" r="5" fill="#f49523" />
    
    <!-- Digital Elements -->
    <line x1="120" y1="160" x2="120" y2="180" stroke="#f49523" stroke-width="1" stroke-dasharray="5 3" />
    <line x1="280" y1="160" x2="280" y2="180" stroke="#f49523" stroke-width="1" stroke-dasharray="5 3" />
    <circle cx="120" cy="160" r="3" fill="#f49523" />
    <circle cx="280" cy="160" r="3" fill="#f49523" />
    
    <!-- Data Transmission Lines -->
    <path d="M130 170C150 150 250 150 270 170" stroke="#f49523" stroke-width="1" stroke-dasharray="5 3" opacity="0.5" />
    <path d="M135 160C155 140 245 140 265 160" stroke="#f49523" stroke-width="1" stroke-dasharray="5 3" opacity="0.3" />
    
    <!-- Digital Dots -->
    <circle cx="200" cy="100" r="3" fill="#f49523" />
    <circle cx="150" cy="120" r="2" fill="#f49523" />
    <circle cx="250" cy="120" r="2" fill="#f49523" />
  </g>
</svg> 